<svg version="1.1" id="Layer_1" xmlns="http://www.w3.org/2000/svg" xmlns:xlink="http://www.w3.org/1999/xlink" x="0px" y="0px"
	 width="100%" viewBox="0 0 1024 528" enable-background="new 0 0 1024 528" xml:space="preserve">
<path fill="#000000" opacity="1.000000" stroke="none" 
	d="
M1022.500000,529.000000 
	C1021.308533,520.058838 1021.730103,511.111511 1021.825195,502.165039 
	C1021.849976,499.835297 1022.786133,498.017456 1024.729004,496.248718 
	C1025.000000,506.166656 1025.005127,516.333313 1024.993530,526.500000 
	C1024.991943,527.828125 1025.492920,529.627686 1022.500000,529.000000 
z"/>
<path fill="#000000" opacity="1.000000" stroke="none" 
	d="
M395.739868,167.009552 
	C395.279053,155.180450 396.565216,144.157410 402.489685,134.221161 
	C412.242615,117.864037 426.990143,109.268265 445.820984,109.107674 
	C488.967133,108.739731 532.121216,108.755501 575.267517,109.134262 
	C606.324707,109.406898 627.211365,131.211960 627.210449,162.309906 
	C627.209290,204.459793 627.231323,246.609695 627.226074,288.759583 
	C627.222351,318.830078 605.223450,341.029510 575.280762,341.069061 
	C532.464478,341.125580 489.647949,341.153961 446.831787,341.072968 
	C423.362671,341.028564 403.969482,326.242615 397.624939,303.751282 
	C396.266785,298.936523 395.706360,293.985626 395.711334,288.951294 
	C395.751495,248.470032 395.737701,207.988724 395.739868,167.009552 
M448.433807,194.963669 
	C439.021484,216.004456 439.289215,236.809738 449.775391,257.451324 
	C451.452271,260.752228 453.691956,262.386475 457.435608,262.808136 
	C469.032104,264.114441 480.599304,264.625641 492.278412,263.892609 
	C518.294617,262.259827 543.067566,256.145660 566.950500,245.581970 
	C575.866333,241.638412 579.181274,236.312347 579.187256,226.662598 
	C579.214478,182.940720 545.087219,152.503326 501.479645,156.925079 
	C477.484955,159.358093 459.997894,172.888611 448.433807,194.963669 
M485.103790,273.673706 
	C478.179352,274.801880 471.075470,272.054932 463.900391,274.137390 
	C473.991211,290.108398 507.821930,297.773529 532.418152,290.093048 
	C549.513855,284.754761 570.503967,265.677734 570.067017,254.742279 
	C543.003601,266.118225 515.167542,272.944122 485.103790,273.673706 
M598.536072,202.060226 
	C597.184814,200.847672 595.945618,199.468887 594.454468,198.463913 
	C592.514832,197.156662 590.164368,196.045441 587.969666,197.322784 
	C585.926147,198.512115 585.890686,200.958603 586.073608,203.149338 
	C586.540039,208.735291 588.305237,213.778259 592.310974,217.894028 
	C594.610291,220.256485 596.731934,220.287720 599.128723,217.958466 
	C603.018250,214.178497 603.040039,208.722488 598.536072,202.060226 
z"/>
<path fill="#000000" opacity="1.000000" stroke="none" 
	d="
M434.269043,375.791504 
	C433.699097,388.738220 424.075745,395.800659 412.479828,392.252289 
	C406.014343,390.273804 402.155304,385.415039 401.820679,378.161407 
	C401.560364,372.518799 401.756805,366.854919 401.760132,361.200500 
	C401.761658,358.618317 402.557220,356.388153 405.472290,356.205109 
	C408.783203,355.997192 409.683899,358.481903 409.749420,361.164520 
	C409.871155,366.148743 409.801239,371.138489 409.762177,376.125549 
	C409.710419,382.735748 412.586670,386.521484 417.791260,386.611450 
	C422.929504,386.700287 426.285034,383.026978 426.558228,376.576782 
	C426.769165,371.596191 426.620056,366.599976 426.616516,361.610718 
	C426.614624,358.963257 426.872498,356.219330 430.261597,356.201294 
	C433.844330,356.182251 434.303589,358.955627 434.281799,361.849457 
	C434.247986,366.339661 434.271088,370.830322 434.269043,375.791504 
z"/>
<path fill="#000000" opacity="1.000000" stroke="none" 
	d="
M486.437805,376.483978 
	C484.779327,371.361359 483.220306,366.625305 481.707794,361.874512 
	C480.939331,359.460876 480.745453,357.047516 483.825714,356.230560 
	C486.539276,355.510895 488.354980,357.036377 489.158600,359.531464 
	C491.246887,366.015289 493.219635,372.536530 495.208801,379.051910 
	C495.880219,381.251099 496.336243,383.545258 498.370667,385.106964 
	C500.756439,384.063904 501.048187,381.774841 501.680756,379.810364 
	C503.769043,373.324982 505.756104,366.806641 507.740997,360.288452 
	C508.613831,357.422333 510.122467,355.314880 513.451477,356.282623 
	C516.990967,357.311523 515.981323,360.022369 515.223999,362.428650 
	C512.879089,369.878876 510.627808,377.363586 508.050903,384.733795 
	C506.526367,389.094147 504.195648,393.103729 498.709747,393.073059 
	C493.358185,393.043182 490.834045,389.388641 489.204010,384.910065 
	C488.238831,382.258301 487.433655,379.548279 486.437805,376.483978 
z"/>
<path fill="#000000" opacity="1.000000" stroke="none" 
	d="
M515.905823,373.401947 
	C520.885925,366.388947 531.414978,364.336578 538.242249,368.859253 
	C541.472778,370.999329 543.768250,373.995422 542.690857,378.098969 
	C541.632568,382.129639 538.156189,382.312897 534.643250,382.403076 
	C531.096069,382.494202 527.345825,381.489441 523.648743,383.880585 
	C526.676147,388.044708 530.358704,386.722839 533.948608,385.778229 
	C536.450989,385.119812 539.687378,382.139740 541.099487,386.291290 
	C542.421509,390.177521 538.382202,391.153961 535.680298,392.047333 
	C529.473877,394.099518 523.364075,393.791901 518.372070,389.100220 
	C513.791687,384.795441 514.020630,379.331665 515.905823,373.401947 
M530.139709,373.113556 
	C527.726135,373.086365 525.246643,372.890869 523.552124,375.476044 
	C529.892029,377.107178 530.488586,377.083008 534.072510,375.068481 
	C533.461243,373.639252 532.180969,373.405548 530.139709,373.113556 
z"/>
<path fill="#000000" opacity="1.000000" stroke="none" 
	d="
M609.500305,386.606323 
	C611.760071,385.848541 613.602234,385.072083 615.494812,384.448730 
	C617.125977,383.911499 618.443726,384.527283 619.330139,385.969788 
	C620.173523,387.342285 619.657532,388.474945 618.648254,389.546021 
	C614.842468,393.584900 604.512573,394.249969 598.847839,390.796844 
	C593.488464,387.529816 591.359070,380.768188 593.708984,374.574554 
	C595.484192,369.895599 598.960632,367.258148 603.814148,366.802399 
	C609.749207,366.245087 615.626770,366.514496 619.565796,372.029633 
	C621.054932,374.114716 621.881958,376.515106 620.549377,379.069794 
	C619.236023,381.587311 616.988098,382.279572 614.296875,382.372986 
	C610.088318,382.519043 605.772278,381.629242 601.264404,383.214508 
	C603.089722,387.097656 606.171387,386.702026 609.500305,386.606323 
M604.800415,376.593872 
	C607.506165,376.372620 610.368652,377.368286 613.064880,375.760773 
	C609.261719,371.751862 605.373230,371.790253 601.711243,375.900360 
	C602.613586,376.134094 603.375793,376.331543 604.800415,376.593872 
z"/>
<path fill="#000000" opacity="1.000000" stroke="none" 
	d="
M515.934204,444.860931 
	C513.755615,439.924225 515.267334,436.327393 519.124390,433.668671 
	C523.483521,430.663879 527.945923,431.423492 533.366089,435.923859 
	C536.702393,433.185059 540.328064,431.202118 545.072388,432.121063 
	C547.769836,432.643585 547.426758,429.959900 547.878113,428.311981 
	C548.418030,426.340637 548.925476,424.013031 551.642944,424.756134 
	C554.090759,425.425507 553.302795,427.744171 553.026306,429.445435 
	C552.198853,434.536530 551.213684,439.602264 550.264404,444.673126 
	C549.801880,447.143616 548.597046,448.473480 545.766541,448.081970 
	C544.005737,447.838379 542.158752,448.251312 540.348633,448.321777 
	C538.127747,448.408203 535.372803,448.385132 534.471436,446.355804 
	C531.450073,439.553741 526.105591,442.957245 521.605896,442.795410 
	C523.619080,444.561310 525.750244,443.563965 527.885498,443.030212 
	C528.903625,442.775696 529.971619,442.786041 530.514587,443.831726 
	C531.206665,445.164459 530.255798,446.005096 529.321228,446.746094 
	C526.022400,449.361481 519.911316,448.643372 515.934204,444.860931 
M544.289307,437.295532 
	C541.763245,435.836761 539.799377,436.694275 538.388672,438.941956 
	C537.557190,440.266724 537.349304,441.877197 538.700317,443.032623 
	C540.132141,444.257202 541.877625,444.028442 543.334839,443.097870 
	C545.334045,441.821136 546.497253,440.113556 544.289307,437.295532 
z"/>
<path fill="#000000" opacity="1.000000" stroke="none" 
	d="
M570.515076,383.188934 
	C574.145752,385.539185 577.347107,388.114624 581.658081,385.783966 
	C581.614136,383.778656 580.083984,383.653809 578.939758,383.187195 
	C577.095215,382.434998 575.160278,381.892914 573.348328,381.074493 
	C569.675598,379.415710 566.314331,377.066132 567.252930,372.521667 
	C568.158020,368.139526 571.911194,366.823517 576.047974,366.666626 
	C579.901978,366.520477 583.731628,366.542206 587.055725,368.933014 
	C588.935059,370.284668 590.514038,372.008240 588.989197,374.340424 
	C587.664978,376.365662 585.582397,376.053070 583.689392,374.866882 
	C581.505920,373.498535 579.249390,372.636932 576.214417,373.683350 
	C577.474548,375.847412 579.638428,376.100708 581.474121,376.891174 
	C583.600464,377.806824 585.900757,378.545258 587.717957,379.905212 
	C591.511658,382.744293 591.237488,388.276978 587.424866,391.027832 
	C582.522156,394.565338 571.929565,393.571381 567.864197,389.173035 
	C566.839050,388.063934 565.781921,386.848907 566.262146,385.213348 
	C566.816223,383.326202 568.263245,382.690552 570.515076,383.188934 
z"/>
<path fill="#000000" opacity="1.000000" stroke="none" 
	d="
M437.864716,370.469666 
	C438.400757,367.372345 440.412842,365.821625 442.529358,366.990662 
	C445.636414,368.706909 448.106689,367.486420 450.973694,366.890839 
	C459.464203,365.126984 465.003143,369.608704 465.264648,378.251617 
	C465.370209,381.739685 465.328735,385.237610 465.202484,388.725525 
	C465.112030,391.226196 463.756287,392.906219 461.145081,392.769958 
	C458.784515,392.646820 457.717621,390.979004 457.684052,388.676208 
	C457.635559,385.351074 457.735321,382.018250 457.538879,378.702484 
	C457.367432,375.809143 456.150757,373.509521 452.849152,373.232208 
	C449.632141,372.962036 447.411469,374.393250 446.290588,377.440765 
	C445.049347,380.815643 445.373962,384.335938 445.433960,387.815887 
	C445.478027,390.371185 445.095306,392.767059 442.032684,392.891418 
	C438.824188,393.021698 437.838318,390.677277 437.821838,387.880432 
	C437.788483,382.226807 437.820343,376.572815 437.864716,370.469666 
z"/>
<path fill="#000000" opacity="1.000000" stroke="none" 
	d="
M248.605988,430.800415 
	C245.638260,433.337097 246.221176,436.786774 245.379547,439.749268 
	C244.882965,441.497192 244.692169,443.329742 244.294022,445.108582 
	C243.898972,446.873718 243.044846,448.412933 240.946259,447.911713 
	C239.044769,447.457642 239.202393,445.791870 239.452774,444.238281 
	C239.980637,440.962982 240.474960,437.682251 240.989197,434.404724 
	C241.268341,432.625580 241.203568,430.873230 239.020172,430.525238 
	C236.980469,430.200195 235.952484,431.759796 235.563080,433.431183 
	C234.697250,437.147552 234.045029,440.914337 233.335083,444.666107 
	C232.962769,446.633636 232.181976,448.448212 229.860367,447.946503 
	C227.667587,447.472595 228.082092,445.546509 228.416168,443.853119 
	C229.186371,439.949127 229.615021,435.950439 230.720657,432.146667 
	C232.216461,427.000549 236.855179,424.511108 241.583542,426.356812 
	C243.967865,427.287476 245.827927,427.192322 248.171463,426.386993 
	C253.845703,424.437073 257.697998,427.508942 257.453644,433.461121 
	C257.289032,437.470673 256.389008,441.351990 255.375244,445.213074 
	C254.908371,446.991180 254.007889,448.479584 251.952316,447.932343 
	C250.002640,447.413300 250.442154,445.583221 250.647675,444.146484 
	C251.117371,440.862915 251.660126,437.587860 252.262817,434.325897 
	C252.774689,431.555542 252.033691,430.049103 248.605988,430.800415 
z"/>
<path fill="#000000" opacity="1.000000" stroke="none" 
	d="
M489.938934,441.114807 
	C488.780334,443.827759 489.972870,448.503387 485.980804,447.811981 
	C481.738068,447.077179 484.519684,443.087219 484.800262,440.690460 
	C485.824738,431.940155 489.625732,429.704071 497.652069,433.201019 
	C499.418365,433.970581 500.417236,433.492401 501.731445,432.931580 
	C504.980804,431.544983 508.226868,431.435516 511.347809,433.184631 
	C513.363342,434.314178 514.679565,436.001404 514.114380,438.515106 
	C513.608154,440.766907 511.968201,441.848358 509.821320,442.077332 
	C507.447021,442.330597 505.050415,442.374390 501.436371,442.578827 
	C504.679108,444.419983 506.688141,443.691010 508.709442,443.147095 
	C509.845184,442.841492 511.149017,442.526001 511.777832,443.874939 
	C512.517090,445.460876 511.356720,446.427094 510.150940,447.032593 
	C506.863434,448.683411 503.432892,448.969727 500.057129,447.354126 
	C496.824463,445.807007 496.434814,442.862091 496.663513,439.705963 
	C496.722412,438.893250 496.766052,438.079376 496.829773,437.056732 
	C493.489990,436.628021 491.185944,437.578033 489.938934,441.114807 
z"/>
<path fill="#000000" opacity="1.000000" stroke="none" 
	d="
M377.100586,448.349915 
	C370.501953,447.924774 368.169434,445.582245 368.716644,440.267426 
	C369.235229,435.230499 374.345093,431.241577 379.333923,432.045929 
	C380.304291,432.202332 381.207550,432.809357 382.176849,432.932922 
	C388.234924,433.704987 388.275635,433.685211 387.231384,440.044830 
	C386.774963,442.824493 386.356659,445.643494 385.525360,448.321808 
	C383.566986,454.631256 376.341400,457.515045 370.539917,454.460571 
	C369.028961,453.665070 367.357971,452.688782 368.285278,450.683441 
	C369.216187,448.670166 370.961029,449.096710 372.509155,450.098969 
	C374.324493,451.274231 376.219910,451.773621 378.092438,450.469727 
	C379.643890,449.389404 379.158508,448.614777 377.100586,448.349915 
M377.443298,443.759857 
	C380.120148,443.483093 381.749634,442.143860 381.677216,439.315765 
	C381.631195,437.520416 380.357910,436.661530 378.754150,436.547363 
	C376.781769,436.406952 375.105072,437.277588 374.438934,439.177765 
	C373.700104,441.285248 374.081329,443.130920 377.443298,443.759857 
z"/>
<path fill="#000000" opacity="1.000000" stroke="none" 
	d="
M398.117615,433.792358 
	C402.720093,431.638397 403.157562,432.182373 403.358856,440.361908 
	C405.627319,436.940796 405.073364,430.894562 410.855957,432.291473 
	C414.787231,433.241089 413.342590,437.097565 413.473206,441.031311 
	C414.712616,438.039185 415.477448,435.897003 416.479706,433.872345 
	C417.203217,432.410797 418.547760,431.586578 420.195984,432.304047 
	C422.020386,433.098236 421.714508,434.666595 421.143555,436.134033 
	C420.302368,438.296112 419.360901,440.418945 418.504059,442.575195 
	C417.370239,445.428375 416.135406,448.413422 412.446869,448.189880 
	C408.729523,447.964569 408.969788,444.590881 408.571869,441.155090 
	C407.607361,443.300751 407.121094,444.702850 406.379669,445.953705 
	C405.368286,447.660065 403.762177,448.464325 401.750244,448.216370 
	C399.621063,447.953949 398.540680,446.463531 398.185516,444.574493 
	C397.539642,441.139679 397.589294,437.654297 398.117615,433.792358 
z"/>
<path fill="#000000" opacity="1.000000" stroke="none" 
	d="
M561.701538,366.903809 
	C564.081360,367.336426 565.733582,368.302734 565.559937,370.505005 
	C565.378479,372.806091 563.416443,373.076447 561.491272,373.329468 
	C555.245361,374.150421 553.541748,376.076050 553.353943,382.373505 
	C553.284424,384.703949 553.387207,387.040436 553.285278,389.368683 
	C553.191956,391.500763 551.973511,392.843842 549.840515,392.904297 
	C547.758545,392.963287 546.076721,391.721100 546.014526,389.701111 
	C545.809631,383.050385 545.801086,376.386963 545.974365,369.735138 
	C546.029602,367.616364 548.181824,365.942963 549.797485,366.903534 
	C553.835266,369.304108 557.494446,366.812988 561.701538,366.903809 
z"/>
<path fill="#000000" opacity="1.000000" stroke="none" 
	d="
M718.574219,453.151978 
	C719.551758,447.355286 720.503845,441.950714 721.404480,436.537506 
	C721.906860,433.517670 722.950623,431.405701 726.670837,432.495880 
	C727.552063,432.754089 728.629883,432.394562 729.608643,432.257324 
	C735.102661,431.486786 738.652527,433.411469 739.291443,437.528961 
	C740.121155,442.876617 736.604980,447.645233 731.259583,448.214447 
	C729.294495,448.423706 727.288452,448.248230 725.145691,448.248230 
	C723.726074,449.903015 724.074463,452.242188 723.341492,454.232178 
	C722.839050,455.596100 722.149963,456.809235 720.640442,456.757446 
	C718.682312,456.690277 718.273560,455.248749 718.574219,453.151978 
M733.181458,437.632080 
	C732.425415,436.945160 731.541260,436.438171 730.519653,436.646637 
	C728.323669,437.094757 726.375916,437.969757 726.224731,440.601501 
	C726.127075,442.299896 727.026489,443.443451 728.742554,443.677002 
	C731.163940,444.006500 732.933899,443.045624 733.627747,440.632111 
	C733.838257,439.899689 733.596252,439.037231 733.181458,437.632080 
z"/>
<path fill="#000000" opacity="1.000000" stroke="none" 
	d="
M578.290894,432.482910 
	C582.783447,431.570038 586.893250,433.472992 591.185486,432.260376 
	C593.493896,431.608215 595.120056,434.201508 595.319885,436.866577 
	C595.548035,439.908905 594.722168,442.802368 594.044495,445.702850 
	C593.668213,447.313354 592.540161,448.428558 590.771484,447.977264 
	C589.204773,447.577454 588.996399,446.197174 589.217712,444.756744 
	C589.610901,442.197723 590.354309,439.651825 589.748840,436.755493 
	C586.847534,437.084839 586.711914,439.174988 586.344482,441.046326 
	C586.088989,442.347107 585.985535,443.680786 585.679565,444.967804 
	C585.279175,446.651947 584.599487,448.336182 582.469360,448.065125 
	C580.047546,447.756866 580.681824,445.788361 580.636902,444.164856 
	C580.573975,441.889740 582.210327,439.734619 581.043274,437.105042 
	C578.189148,437.247284 577.893982,439.487610 577.389771,441.467377 
	C577.023132,442.906860 576.906860,444.415314 576.479004,445.832642 
	C576.002869,447.409637 574.935608,448.477814 573.132690,448.004517 
	C571.494202,447.574371 571.321350,446.152557 571.553650,444.791412 
	C572.111328,441.523895 572.729187,438.263306 573.447693,435.027679 
	C573.976318,432.646881 575.544800,431.769684 578.290894,432.482910 
z"/>
<path fill="#000000" opacity="1.000000" stroke="none" 
	d="
M678.164429,448.304993 
	C676.294983,448.311523 674.822693,448.311523 673.312317,448.311523 
	C671.843079,450.078735 672.246826,452.434418 671.409546,454.404205 
	C670.839905,455.744171 670.101135,456.832062 668.544678,456.638245 
	C666.833679,456.425140 666.512817,454.988007 666.734497,453.623260 
	C667.769043,447.253326 668.872192,440.893646 670.057556,434.550232 
	C670.189270,433.845154 671.050903,432.682312 671.487976,432.720428 
	C675.825684,433.098145 680.284729,430.575287 684.508118,433.158752 
	C688.877686,435.831696 688.650513,442.783600 684.083313,446.327057 
	C682.471558,447.577484 680.630432,448.280731 678.164429,448.304993 
M676.772583,443.707245 
	C677.937317,443.847198 679.112427,443.827850 680.061157,443.075226 
	C681.673889,441.795807 683.152222,440.146851 681.820740,438.092377 
	C680.381042,435.870911 678.102966,436.163116 676.226929,437.612732 
	C673.917969,439.396912 673.169434,441.480194 676.772583,443.707245 
z"/>
<path fill="#000000" opacity="1.000000" stroke="none" 
	d="
M658.791016,442.523499 
	C658.002747,445.161804 658.436157,448.472534 654.644287,448.004517 
	C649.696289,447.393738 642.963806,450.965240 640.883057,443.056732 
	C639.748962,438.746124 641.763733,435.318787 645.704834,433.064819 
	C648.630493,431.391602 651.828003,432.176483 655.090454,432.015717 
	C655.434998,430.762573 655.687805,429.650177 656.048523,428.573944 
	C656.660583,426.748077 656.855591,424.070831 659.619080,424.750641 
	C662.348938,425.422150 661.343750,428.036133 661.090759,429.848663 
	C660.516724,433.960968 659.648315,438.032166 658.791016,442.523499 
M651.603943,443.239929 
	C653.591003,441.813629 654.602417,439.971497 653.076233,437.768921 
	C652.025513,436.252686 650.321594,436.162018 648.617188,436.964447 
	C646.726135,437.854736 645.803528,439.334198 646.234375,441.353668 
	C646.798462,443.997742 648.812683,443.959595 651.603943,443.239929 
z"/>
<path fill="#000000" opacity="1.000000" stroke="none" 
	d="
M461.524323,442.356598 
	C461.107330,444.044556 460.902374,445.368652 460.411957,446.576904 
	C459.928772,447.767212 458.821594,448.326019 457.558319,447.996490 
	C456.249847,447.655182 455.756927,446.543396 455.878876,445.291534 
	C456.022766,443.814514 456.451813,442.364075 456.577576,440.886810 
	C456.712830,439.298126 457.266144,437.289398 454.987610,436.788330 
	C453.159821,436.386292 451.661865,437.576538 450.980469,439.117188 
	C450.122345,441.057556 449.758209,443.214691 449.160339,445.272339 
	C448.655945,447.008240 447.712738,448.524658 445.693481,447.984039 
	C443.600708,447.423859 443.831177,445.558014 444.132385,443.858307 
	C445.027679,438.806122 445.873932,433.744659 446.834869,428.705017 
	C447.203217,426.773468 447.554047,424.325897 450.258942,424.704498 
	C453.227417,425.119965 452.084198,427.669525 452.109375,429.520752 
	C452.120148,430.312378 452.111206,431.104279 452.111206,431.894226 
	C461.104370,431.963806 462.932800,433.942474 461.524323,442.356598 
z"/>
<path fill="#000000" opacity="1.000000" stroke="none" 
	d="
M610.056641,437.743561 
	C611.728638,437.611145 613.021057,437.529266 614.778259,437.417999 
	C612.016296,434.968048 609.046753,438.728058 606.535156,436.251740 
	C607.190674,432.100098 610.719666,432.258514 613.635742,431.940125 
	C616.859985,431.588043 619.652649,432.802063 620.864868,436.034698 
	C621.979065,439.006073 620.467224,441.921631 620.044617,444.842407 
	C619.437805,449.035706 616.238831,448.067291 613.480042,447.911804 
	C612.998352,447.884674 612.507751,448.126892 612.014404,448.177551 
	C608.732361,448.514557 605.224121,448.574707 604.229309,444.681549 
	C603.167542,440.526184 606.192749,438.786957 610.056641,437.743561 
z"/>
<path fill="#000000" opacity="1.000000" stroke="none" 
	d="
M258.897369,437.222046 
	C262.996796,432.209595 267.803345,430.705750 272.144073,432.867035 
	C274.331970,433.956390 276.139984,435.581757 275.895782,438.230408 
	C275.630096,441.112152 273.228424,441.813995 270.836090,442.105804 
	C268.748352,442.360474 266.630035,442.364471 263.091614,442.557373 
	C266.364716,444.378143 268.328186,443.778259 270.294159,443.214661 
	C271.644836,442.827484 273.067596,442.599091 273.589539,444.315399 
	C273.999420,445.663086 272.963470,446.511292 271.892120,447.008545 
	C268.241791,448.702942 264.409760,449.210327 260.950134,446.891388 
	C257.571777,444.626953 257.257416,441.213806 258.897369,437.222046 
z"/>
<path fill="#000000" opacity="1.000000" stroke="none" 
	d="
M793.737915,435.637451 
	C794.899353,440.177521 792.666992,441.740143 788.950684,442.201019 
	C786.888550,442.456757 784.721985,441.721802 782.506409,442.853912 
	C785.516296,445.573944 788.934509,441.782471 791.959900,443.568024 
	C791.906067,447.477020 788.971497,447.767120 786.504395,448.157410 
	C783.123962,448.692139 779.718872,448.405670 777.690918,445.092590 
	C776.000366,442.330780 776.223083,439.357239 777.869141,436.606049 
	C781.177490,431.076660 788.481140,430.487976 793.737915,435.637451 
z"/>
<path fill="#000000" opacity="1.000000" stroke="none" 
	d="
M477.138000,386.639679 
	C477.029358,389.892792 476.639374,392.850128 473.113983,392.838379 
	C469.285645,392.825623 468.965149,389.689392 468.966125,386.721771 
	C468.967865,381.579651 468.927002,376.434509 469.094025,371.296783 
	C469.173340,368.856201 469.951447,366.527405 473.026398,366.527496 
	C476.061951,366.527557 476.943176,368.800171 477.027435,371.256561 
	C477.197906,376.227997 477.120117,381.207947 477.138000,386.639679 
z"/>
<path fill="#000000" opacity="1.000000" stroke="none" 
	d="
M570.856018,442.636566 
	C568.513733,447.235748 564.784485,448.473083 560.315002,448.350006 
	C556.868408,448.255096 554.038208,447.021759 552.796143,443.671722 
	C551.576599,440.382233 552.771484,437.448853 555.115173,435.023712 
	C558.271423,431.757721 563.515320,431.017334 567.560608,433.000092 
	C571.712341,435.035126 571.940796,438.419342 570.856018,442.636566 
M563.224915,436.594147 
	C560.592529,436.487396 558.629150,437.398407 558.187195,440.229309 
	C557.928467,441.886505 558.590149,443.204620 560.359131,443.606476 
	C562.321899,444.052429 564.073181,443.518829 565.139343,441.785065 
	C566.342896,439.827881 566.280457,437.986572 563.224915,436.594147 
z"/>
<path fill="#000000" opacity="1.000000" stroke="none" 
	d="
M758.490967,442.147034 
	C756.089478,447.171906 752.171143,448.690857 747.290161,448.295227 
	C740.938049,447.780365 738.067261,442.469696 741.108459,436.924072 
	C743.260437,433.000061 749.152893,430.836761 753.693970,432.468414 
	C758.083862,434.045715 759.977234,437.091339 758.490967,442.147034 
M745.425842,440.691772 
	C745.461121,443.454956 747.278809,443.928223 749.469360,443.701599 
	C751.662354,443.474701 753.091980,442.206238 753.563049,440.026123 
	C753.827393,438.802765 753.480591,437.711304 752.322937,437.061401 
	C750.053345,435.787262 748.198303,436.689545 746.567444,438.312317 
	C746.118530,438.759094 745.885437,439.422729 745.425842,440.691772 
z"/>
<path fill="#000000" opacity="1.000000" stroke="none" 
	d="
M326.728058,444.454712 
	C324.164093,447.599121 321.068268,448.427185 317.563202,448.349762 
	C313.923889,448.269348 310.799194,447.101440 309.724579,443.407410 
	C308.579620,439.471558 310.124786,436.095428 313.538452,433.918518 
	C317.478058,431.406219 321.776123,430.820984 325.697327,433.810822 
	C329.421478,436.650360 328.938538,440.391724 326.728058,444.454712 
M314.698456,441.378418 
	C316.480499,444.982391 319.166870,444.419922 321.595947,442.465698 
	C323.275024,441.114838 323.750427,438.654175 321.814453,437.260620 
	C319.119781,435.320862 316.820709,436.739594 315.192352,439.292816 
	C314.933075,439.699341 314.862274,440.226105 314.698456,441.378418 
z"/>
<path fill="#000000" opacity="1.000000" stroke="none" 
	d="
M689.200623,436.729370 
	C689.914001,434.454437 690.264954,431.937531 692.911316,432.446960 
	C695.762085,432.995728 694.764221,435.416412 694.469299,437.337280 
	C694.318420,438.319977 694.192627,439.312714 694.152954,440.304779 
	C694.098938,441.656189 694.110168,443.086548 695.780396,443.514740 
	C697.230347,443.886414 698.329590,443.158386 699.246277,442.073792 
	C700.611877,440.458221 700.619202,438.384247 701.195679,436.498871 
	C701.759644,434.654419 701.933777,432.059143 704.636169,432.449799 
	C707.578430,432.875153 706.569153,435.366882 706.377502,437.265472 
	C706.294312,438.089813 706.166016,438.911346 706.019348,439.727203 
	C704.521606,448.060455 701.772644,449.895782 693.319031,448.200989 
	C690.521790,447.640198 688.896606,445.885345 688.744385,443.081146 
	C688.637390,441.111267 688.965210,439.117798 689.200623,436.729370 
z"/>
<path fill="#000000" opacity="1.000000" stroke="none" 
	d="
M759.938721,444.035156 
	C762.600586,439.295166 765.579651,445.072601 768.343140,443.371735 
	C767.794678,442.032715 766.368103,442.274048 765.419006,441.696259 
	C763.392517,440.462585 761.193604,439.384033 761.681396,436.454498 
	C762.223450,433.198822 764.771240,432.288879 767.527832,432.025238 
	C770.406616,431.749878 773.429749,432.012787 775.037781,434.791077 
	C776.147766,436.708923 774.896667,438.099976 772.760071,437.886688 
	C771.354492,437.746338 770.016907,436.924133 768.106201,436.202271 
	C769.153259,438.551788 771.183716,438.442108 772.465454,439.390076 
	C775.928711,441.951508 775.598694,445.854248 771.717957,447.660980 
	C767.779968,449.494354 762.730286,448.110931 759.938721,444.035156 
z"/>
<path fill="#000000" opacity="1.000000" stroke="none" 
	d="
M637.806396,446.621094 
	C634.676575,449.149323 633.375061,448.027130 633.345886,444.768951 
	C633.334167,443.458679 633.689453,442.139740 633.928223,440.833984 
	C634.222534,439.224152 635.033447,437.327515 632.660767,436.739471 
	C630.634399,436.237305 628.981628,437.401672 628.242737,439.182220 
	C627.362488,441.303223 626.976990,443.625824 626.317078,445.843201 
	C625.903259,447.233368 625.019470,448.275452 623.450562,448.053864 
	C621.525085,447.781891 621.163452,446.255463 621.425232,444.673035 
	C621.966248,441.401764 622.630188,438.149323 623.317200,434.904694 
	C623.522461,433.935272 624.106140,432.423615 624.955566,432.658356 
	C629.093018,433.801727 633.511108,430.207092 637.341797,433.205414 
	C640.877136,435.972473 639.338318,439.858002 638.819519,443.403809 
	C638.676636,444.380371 638.289185,445.321136 637.806396,446.621094 
z"/>
<path fill="#000000" opacity="1.000000" stroke="none" 
	d="
M279.941895,432.391663 
	C282.349182,432.458344 284.294495,432.845123 286.521606,432.259552 
	C291.106659,431.053955 294.465546,433.982544 294.177399,438.648163 
	C294.025665,441.105530 293.434418,443.559692 292.808929,445.954529 
	C292.459106,447.293945 291.417236,448.316833 289.834442,447.999481 
	C288.226440,447.677032 287.833313,446.396332 288.003479,444.952118 
	C288.158203,443.638794 288.564880,442.348969 288.649658,441.035187 
	C288.751404,439.458466 289.381104,437.400269 287.155457,436.856293 
	C285.107941,436.355865 283.550598,437.748444 282.822327,439.471832 
	C281.993835,441.432373 281.748871,443.631439 281.117950,445.686218 
	C280.642334,447.235260 279.617828,448.435791 277.828613,447.959717 
	C276.243835,447.538055 276.046600,446.097473 276.356537,444.713562 
	C277.275604,440.609711 276.449860,436.033386 279.941895,432.391663 
z"/>
<path fill="#000000" opacity="1.000000" stroke="none" 
	d="
M355.068665,443.016357 
	C354.632019,444.501892 354.387573,445.659821 353.886688,446.693481 
	C353.321899,447.859039 352.246582,448.343781 350.963287,447.954285 
	C349.882599,447.626282 349.235352,446.679443 349.400024,445.673279 
	C350.041290,441.755402 350.056458,437.451965 351.811157,434.074799 
	C353.769196,430.306213 358.464020,433.312805 361.851318,432.122223 
	C363.828735,431.427185 366.196228,432.938507 366.894257,435.281769 
	C368.030609,439.096527 367.203430,442.865814 365.825073,446.486450 
	C365.379242,447.657593 364.295074,448.265259 362.982819,447.959717 
	C361.620941,447.642670 361.160645,446.552582 361.238617,445.305817 
	C361.321259,443.984222 361.652588,442.679993 361.782715,441.359070 
	C361.951080,439.650665 363.090851,437.403076 360.469727,436.758209 
	C358.217133,436.204010 356.751343,437.825348 355.864410,439.752045 
	C355.457764,440.635406 355.376465,441.668579 355.068665,443.016357 
z"/>
<path fill="#000000" opacity="1.000000" stroke="none" 
	d="
M473.411377,440.792969 
	C471.820221,435.919373 473.472992,432.188782 475.964935,428.531342 
	C477.997711,425.547852 480.628418,424.421631 484.074860,425.284637 
	C485.533447,425.649933 487.191193,426.222809 486.785645,428.177246 
	C486.463867,429.727844 485.085602,430.028198 483.613556,429.760223 
	C482.633057,429.581726 481.617126,429.355560 480.935242,430.611786 
	C480.954803,433.021210 484.738129,431.926331 484.666870,434.750427 
	C484.539429,435.545959 483.862488,436.360260 482.783386,436.385193 
	C479.475281,436.461670 478.781250,438.733765 478.388397,441.324707 
	C478.264282,442.143463 478.267426,442.991211 478.059021,443.785492 
	C477.567444,445.658752 477.423676,448.250122 474.750763,447.932678 
	C471.815735,447.584106 472.894653,444.976685 472.905548,443.129028 
	C472.909363,442.481934 473.171234,441.836365 473.411377,440.792969 
z"/>
<path fill="#000000" opacity="1.000000" stroke="none" 
	d="
M431.998962,432.681946 
	C432.686249,432.201294 433.191345,431.964172 433.433441,431.566803 
	C436.819397,426.009735 436.085907,426.688019 440.172363,431.020172 
	C443.629425,434.685120 443.992554,435.500641 439.158813,437.227264 
	C437.535339,437.807159 437.559937,440.616669 437.535309,442.482269 
	C438.481232,443.989075 439.748047,442.866943 440.772400,443.141937 
	C442.786865,443.682678 443.071838,445.049225 441.843719,446.470764 
	C440.166534,448.412170 437.817657,448.617035 435.446075,448.103577 
	C433.421692,447.665283 432.027161,446.101288 432.194763,444.238678 
	C432.505157,440.789062 433.095215,437.455841 430.739014,434.422607 
	C430.605072,434.250183 431.355591,433.390686 431.998962,432.681946 
z"/>
<path fill="#000000" opacity="1.000000" stroke="none" 
	d="
M306.436249,436.526367 
	C302.936951,437.686798 303.394653,440.255920 303.320282,442.365173 
	C304.707458,444.137299 306.656952,442.227203 307.940826,444.223724 
	C307.904907,447.691345 305.214966,448.307251 302.316742,448.217804 
	C299.045959,448.116821 297.727997,446.032928 297.751312,442.875793 
	C297.772156,440.057678 300.117798,436.806335 295.642242,435.026001 
	C297.878571,432.408630 300.140289,430.651947 300.766632,427.780212 
	C300.876343,427.277222 301.634949,426.762695 302.205200,426.544342 
	C303.485840,426.053986 305.288147,427.218964 304.914581,427.707703 
	C302.009094,431.509613 313.071411,432.213623 306.436249,436.526367 
z"/>
<path fill="#000000" opacity="1.000000" stroke="none" 
	d="
M333.175964,432.274963 
	C335.676605,432.738098 337.784698,432.702209 339.954102,432.365295 
	C341.330811,432.151459 342.721527,432.655457 342.905670,434.326813 
	C343.061554,435.741425 341.960999,436.521362 340.766602,436.631012 
	C336.117004,437.058014 334.868378,440.255676 334.271912,444.150848 
	C333.960693,446.183289 333.378754,448.499542 330.706329,447.914337 
	C328.329620,447.393890 328.619385,445.089996 329.176239,443.353485 
	C330.353638,439.682037 329.228485,435.238190 333.175964,432.274963 
z"/>
<path fill="#000000" opacity="1.000000" stroke="none" 
	d="
M712.285278,442.303864 
	C711.944214,443.827942 711.746277,444.983826 711.349792,446.067078 
	C710.843628,447.449463 709.816223,448.307404 708.274353,447.926849 
	C706.886047,447.584198 706.690002,446.350708 706.715088,445.143005 
	C706.791626,441.459076 707.556824,437.881622 708.686646,434.401245 
	C709.395325,432.218384 710.999390,431.737183 713.043396,432.761139 
	C715.402039,433.942780 719.407959,430.014282 720.274292,434.153412 
	C720.966736,437.461914 716.521973,436.318726 714.667603,437.671051 
	C713.206360,438.736725 712.597900,440.208221 712.285278,442.303864 
z"/>
<path fill="#000000" opacity="1.000000" stroke="none" 
	d="
M349.593475,430.528625 
	C349.058105,435.387848 348.484467,439.924622 347.368744,444.389771 
	C346.905487,446.243683 346.445740,448.302490 344.095245,447.991058 
	C341.469666,447.643158 342.287933,445.503571 342.345032,443.666168 
	C342.504700,438.528870 344.956635,433.814911 344.879822,428.620667 
	C344.851440,426.703186 346.522034,425.621521 348.392792,426.019409 
	C350.927124,426.558441 350.811676,428.337677 349.593475,430.528625 
z"/>
<path fill="#000000" opacity="1.000000" stroke="none" 
	d="
M426.752014,445.511780 
	C425.941010,447.371979 425.039825,448.564087 423.210938,447.862885 
	C421.654053,447.265930 421.786591,445.811035 421.853149,444.480408 
	C422.128174,438.980743 424.540009,433.843323 424.527496,428.260101 
	C424.523926,426.674377 426.117706,425.734375 427.823853,426.021454 
	C429.592438,426.319092 430.478882,427.585175 429.851685,429.277618 
	C427.952576,434.402039 428.489044,439.956390 426.752014,445.511780 
z"/>
<path fill="#000000" opacity="1.000000" stroke="none" 
	d="
M222.313599,427.033569 
	C222.148621,427.597931 221.925644,427.905914 221.923599,428.215393 
	C221.917877,429.082977 222.433731,428.787994 222.800522,428.501923 
	C224.432846,427.228973 225.518433,425.034241 228.327026,425.349518 
	C229.471161,427.504852 228.551620,429.841125 228.435242,431.971069 
	C228.310532,434.253143 226.190460,435.243500 223.963837,434.663055 
	C222.486389,434.277924 221.242462,433.822174 219.699036,434.574310 
	C217.949692,435.426819 216.278976,434.794098 215.563049,433.007812 
	C214.421768,430.160278 216.278442,428.203094 218.216446,426.613892 
	C219.409454,425.635620 221.120087,423.668365 222.313599,427.033569 
z"/>
<path fill="#000000" opacity="1.000000" stroke="none" 
	d="
M810.390381,430.071777 
	C809.341187,431.392792 808.567627,432.498230 807.570923,433.339081 
	C804.685364,435.773193 803.715515,434.458710 803.991577,431.204926 
	C801.724121,432.157593 800.771606,435.444550 797.634155,434.306549 
	C797.634155,432.142212 797.359131,430.024445 797.703430,428.012604 
	C798.138367,425.471252 800.532227,423.842133 802.383606,425.278351 
	C804.946533,427.266602 812.150635,420.768158 810.390381,430.071777 
z"/>
<path fill="#000000" opacity="1.000000" stroke="none" 
	d="
M477.726532,360.822144 
	C477.010437,362.124451 476.506165,363.261230 475.642792,363.943878 
	C473.620331,365.543091 471.512177,365.128693 469.810394,363.388184 
	C468.049316,361.587128 468.009857,359.394836 469.622284,357.531982 
	C471.241638,355.661133 473.397003,355.594391 475.535706,356.764954 
	C476.967316,357.548492 477.606445,358.870331 477.726532,360.822144 
z"/>
<path fill="#000000" opacity="1.000000" stroke="none" 
	d="
M486.988037,198.714767 
	C494.536011,199.303665 501.143066,201.472198 506.999298,205.488846 
	C509.441864,207.164169 511.190308,207.246460 513.637024,205.532761 
	C519.175842,201.653397 525.485107,199.630630 532.181274,198.747116 
	C536.053772,198.236145 538.108459,199.362244 538.051147,203.742355 
	C537.901184,215.213379 537.978577,226.688141 538.050659,238.160858 
	C538.070862,241.378128 536.938477,243.064224 533.470276,243.221451 
	C526.136780,243.553955 519.499939,246.118759 513.595520,250.412735 
	C511.355225,252.041977 509.596649,252.056793 507.349884,250.433319 
	C501.288208,246.053238 494.461365,243.603516 486.970947,243.173126 
	C484.086639,243.007401 482.838409,241.594986 482.848999,238.730652 
	C482.893097,226.758743 482.876770,214.786591 482.869720,202.814529 
	C482.868256,200.327286 483.592407,198.537643 486.988037,198.714767 
z"/>
</svg>